mtllib material.mtl
o Default
v -5.551115123125783e-17 0 1
v 1 1 0.5
v -5.551115123125783e-17 1 0.5
v 1 0 1
v -5.551115123125783e-17 0 0
v 1 0 1
v 1 0 0
v -5.551115123125783e-17 0 1
vt 0 0.5714285969734192
vt 0.25 0.6428571343421936
vt 0 0.6428571343421936
vt 0 0.5714285969734192
vt 0.25 0.5714285969734192
vt 0.25 0.6428571343421936
vt 0.5 0.8571428656578064
vt 0.75 0.9285714030265808
vt 0.5 0.9285714030265808
vt 0.5 0.8571428656578064
vt 0.75 0.8571428656578064
vt 0.75 0.9285714030265808
vn 0 0.4472135954999579 0.8944271909999159
vn 0 0.4472135954999579 0.8944271909999159
vn 0 0.4472135954999579 0.8944271909999159
vn 0 0.4472135954999579 0.8944271909999159
vn 0 0.4472135954999579 0.8944271909999159
vn 0 0.4472135954999579 0.8944271909999159
vn 0 1 0
vn 0 1 0
vn 0 1 0
vn 0 1 0
vn 0 1 0
vn 0 1 0
g tile_sign
usemtl material1
f 1/1/1 2/2/2 3/3/3
f 1/4/4 4/5/5 2/6/6
f 5/7/7 6/8/8 7/9/9
f 5/10/10 8/11/11 6/12/12
